<svg width="1117" height="281" viewBox="0 0 1117 281" fill="none" xmlns="http://www.w3.org/2000/svg">
<path d="M76.3409 222.303C61 222.303 47.6122 218.787 36.1776 211.756C24.7429 204.724 15.8651 194.888 9.54404 182.246C3.22301 169.604 0.0625 154.831 0.0625 137.928C0.0625 120.953 3.22301 106.109 9.54404 93.3963C15.8651 80.6832 24.7429 70.8111 36.1776 63.7798C47.6122 56.7486 61 53.233 76.3409 53.233C91.6818 53.233 105.07 56.7486 116.504 63.7798C127.939 70.8111 136.817 80.6832 143.138 93.3963C149.459 106.109 152.619 120.953 152.619 137.928C152.619 154.831 149.459 169.604 143.138 182.246C136.817 194.888 127.939 204.724 116.504 211.756C105.07 218.787 91.6818 222.303 76.3409 222.303ZM76.4474 195.562C86.3906 195.562 94.6293 192.935 101.163 187.679C107.697 182.423 112.527 175.428 115.652 166.692C118.848 157.956 120.446 148.332 120.446 137.821C120.446 127.381 118.848 117.793 115.652 109.057C112.527 100.25 107.697 93.1832 101.163 87.8565C94.6293 82.5298 86.3906 79.8665 76.4474 79.8665C66.4332 79.8665 58.1236 82.5298 51.5185 87.8565C44.9844 93.1832 40.1193 100.25 36.9233 109.057C33.7983 117.793 32.2358 127.381 32.2358 137.821C32.2358 148.332 33.7983 157.956 36.9233 166.692C40.1193 175.428 44.9844 182.423 51.5185 187.679C58.1236 192.935 66.4332 195.562 76.4474 195.562ZM199.029 121.841V219H167.175V55.3636H197.75V81.9972H199.775C203.539 73.3324 209.434 66.3722 217.459 61.1165C225.556 55.8608 235.748 53.233 248.034 53.233C259.185 53.233 268.951 55.5767 277.331 60.2642C285.712 64.8807 292.211 71.7699 296.827 80.9318C301.444 90.0937 303.752 101.422 303.752 114.916V219H271.898V118.751C271.898 106.891 268.809 97.6222 262.63 90.946C256.451 84.1989 247.963 80.8253 237.168 80.8253C229.782 80.8253 223.212 82.4233 217.459 85.6193C211.777 88.8153 207.267 93.5028 203.929 99.6818C200.662 105.79 199.029 113.176 199.029 121.841ZM357.326 0.818175V219H325.472V0.818175H357.326ZM399.314 280.364C394.555 280.364 390.223 279.973 386.317 279.192C382.411 278.482 379.499 277.7 377.581 276.848L385.251 250.747C391.075 252.31 396.26 252.984 400.805 252.771C405.351 252.558 409.364 250.854 412.844 247.658C416.395 244.462 419.52 239.241 422.219 231.997L426.161 221.131L366.288 55.3636H400.379L441.821 182.352H443.526L484.967 55.3636H519.165L451.729 240.839C448.604 249.362 444.626 256.571 439.797 262.466C434.967 268.432 429.214 272.906 422.538 275.889C415.862 278.872 408.121 280.364 399.314 280.364ZM548.236 280.364C543.477 280.364 539.145 279.973 535.239 279.192C531.332 278.482 528.42 277.7 526.503 276.848L534.173 250.747C539.997 252.31 545.182 252.984 549.727 252.771C554.273 252.558 558.286 250.854 561.766 247.658C565.317 244.462 568.442 239.241 571.141 231.997L575.082 221.131L515.21 55.3636H549.301L590.743 182.352H592.447L633.889 55.3636H668.087L600.651 240.839C597.526 249.362 593.548 256.571 588.719 262.466C583.889 268.432 578.136 272.906 571.46 275.889C564.784 278.872 557.043 280.364 548.236 280.364ZM740.384 222.303C725.043 222.303 711.655 218.787 700.221 211.756C688.786 204.724 679.908 194.888 673.587 182.246C667.266 169.604 664.105 154.831 664.105 137.928C664.105 120.953 667.266 106.109 673.587 93.3963C679.908 80.6832 688.786 70.8111 700.221 63.7798C711.655 56.7486 725.043 53.233 740.384 53.233C755.725 53.233 769.113 56.7486 780.547 63.7798C791.982 70.8111 800.86 80.6832 807.181 93.3963C813.502 106.109 816.662 120.953 816.662 137.928C816.662 154.831 813.502 169.604 807.181 182.246C800.86 194.888 791.982 204.724 780.547 211.756C769.113 218.787 755.725 222.303 740.384 222.303ZM740.49 195.562C750.434 195.562 758.672 192.935 765.206 187.679C771.74 182.423 776.57 175.428 779.695 166.692C782.891 157.956 784.489 148.332 784.489 137.821C784.489 127.381 782.891 117.793 779.695 109.057C776.57 100.25 771.74 93.1832 765.206 87.8565C758.672 82.5298 750.434 79.8665 740.49 79.8665C730.476 79.8665 722.167 82.5298 715.561 87.8565C709.027 93.1832 704.162 100.25 700.966 109.057C697.841 117.793 696.279 127.381 696.279 137.821C696.279 148.332 697.841 157.956 700.966 166.692C704.162 175.428 709.027 182.423 715.561 187.679C722.167 192.935 730.476 195.562 740.49 195.562ZM934.876 151.138V55.3636H966.836V219H935.515V190.662H933.81C930.046 199.398 924.009 206.678 915.7 212.501C907.461 218.254 897.198 221.131 884.911 221.131C874.4 221.131 865.096 218.822 856.999 214.206C848.974 209.518 842.653 202.594 838.036 193.432C833.491 184.27 831.218 172.942 831.218 159.447V55.3636H863.072V155.612C863.072 166.763 866.161 175.641 872.34 182.246C878.519 188.851 886.545 192.153 896.417 192.153C902.383 192.153 908.313 190.662 914.208 187.679C920.174 184.696 925.11 180.186 929.016 174.149C932.994 168.112 934.947 160.442 934.876 151.138ZM985.227 219V197.161L1073.86 84.554V83.0625H988.103V55.3636H1113.6V78.5881L1028.37 189.81V191.301H1116.58V219H985.227Z" fill="url(#paint0_linear_189_365)"/>
<defs>
<linearGradient id="paint0_linear_189_365" x1="-14" y1="109.5" x2="1133" y2="109.5" gradientUnits="userSpaceOnUse">
<stop stop-color="#1B1B1B"/>
<stop offset="1" stop-color="#BEBEBE" stop-opacity="0.11"/>
</linearGradient>
</defs>
</svg>

