<svg xmlns="http://www.w3.org/2000/svg" width="80" height="80" viewBox="0 0 80 80" fill="none">
  <defs>
    <filter id="shadow" x="-20%" y="-20%" width="140%" height="140%" filterUnits="objectBoundingBox">
      <feGaussianBlur in="SourceAlpha" stdDeviation="6" result="blur"/>
      <feOffset dy="6" result="offset"/>
      <feColorMatrix in="offset" type="matrix" values="0 0 0 0 0  0 0 0 0 0  0 0 0 0 0  0 0 0 0.15 0"/>
      <feMerge>
        <feMergeNode/>
        <feMergeNode in="SourceGraphic"/>
      </feMerge>
    </filter>
  </defs>
  <g filter="url(#shadow)">
    <circle cx="40" cy="40" r="28" fill="#fff"/>
    <circle cx="40" cy="40" r="28.5" stroke="#E5E7EB"/>
    <path d="M36 46a10 10 0 1 0 0-20 10 10 0 0 0 0 20Z" stroke="#111827" stroke-width="2"/>
    <path d="M46 46l6 6" stroke="#111827" stroke-width="2" stroke-linecap="round"/>
    <path d="M34.5 37a3.5 3.5 0 0 1 5 0l.5.5.5-.5a3.5 3.5 0 0 1 5 5L40 44l-5.5-2a3.5 3.5 0 0 1 0-5Z" fill="#10B981" opacity="0.15"/>
  </g>
</svg>

