<svg xmlns="http://www.w3.org/2000/svg" width="80" height="80" viewBox="0 0 80 80" fill="none">
  <defs>
    <filter id="shadow" x="-20%" y="-20%" width="140%" height="140%" filterUnits="objectBoundingBox">
      <feGaussianBlur in="SourceAlpha" stdDeviation="6" result="blur"/>
      <feOffset dy="6" result="offset"/>
      <feColorMatrix in="offset" type="matrix" values="0 0 0 0 0  0 0 0 0 0  0 0 0 0 0  0 0 0 0.15 0"/>
      <feMerge>
        <feMergeNode/>
        <feMergeNode in="SourceGraphic"/>
      </feMerge>
    </filter>
  </defs>
  <g filter="url(#shadow)">
    <circle cx="40" cy="40" r="28" fill="#fff"/>
    <circle cx="40" cy="40" r="28" fill="url(#grad)" opacity="0.04"/>
    <circle cx="40" cy="40" r="28.5" stroke="#E5E7EB"/>
    <path d="M40 40c3.314 0 6-2.686 6-6s-2.686-6-6-6-6 2.686-6 6 2.686 6 6 6Zm0 3c-5.333 0-10 2.667-10 6v1h20v-1c0-3.333-4.667-6-10-6Z" fill="#111827"/>
    <path d="M52 35h6m-3-3v6" stroke="#10B981" stroke-width="2" stroke-linecap="round"/>
  </g>
  <defs>
    <linearGradient id="grad" x1="12" y1="12" x2="68" y2="68" gradientUnits="userSpaceOnUse">
      <stop stop-color="#000" stop-opacity="0.2"/>
      <stop offset="1" stop-color="#000" stop-opacity="0"/>
    </linearGradient>
  </defs>
</svg>

